<?xml version="1.0" encoding="UTF-8" standalone="no"?>
<!-- Created with Inkscape (http://www.inkscape.org/) -->

<svg
   xmlns:dc="http://purl.org/dc/elements/1.1/"
   xmlns:cc="http://creativecommons.org/ns#"
   xmlns:rdf="http://www.w3.org/1999/02/22-rdf-syntax-ns#"
   xmlns:svg="http://www.w3.org/2000/svg"
   xmlns="http://www.w3.org/2000/svg"
   xmlns:sodipodi="http://sodipodi.sourceforge.net/DTD/sodipodi-0.dtd"
   xmlns:inkscape="http://www.inkscape.org/namespaces/inkscape"
   width="149.42041mm"
   height="41.70118mm"
   viewBox="0 0 149.42041 41.701179"
   version="1.1"
   id="svg8"
   inkscape:version="0.92.4 (5da689c313, 2019-01-14)"
   sodipodi:docname="logo.svg">
  <defs
     id="defs2" />
  <sodipodi:namedview
     id="base"
     pagecolor="#ffffff"
     bordercolor="#666666"
     borderopacity="1.0"
     inkscape:pageopacity="0.0"
     inkscape:pageshadow="2"
     inkscape:zoom="0.5"
     inkscape:cx="-4.9703287"
     inkscape:cy="-204.1297"
     inkscape:document-units="mm"
     inkscape:current-layer="layer1"
     showgrid="false"
     fit-margin-top="0"
     fit-margin-left="0"
     fit-margin-right="0"
     fit-margin-bottom="0"
     inkscape:window-width="1920"
     inkscape:window-height="1017"
     inkscape:window-x="-8"
     inkscape:window-y="-8"
     inkscape:window-maximized="1" />
  <metadata
     id="metadata5">
    <rdf:RDF>
      <cc:Work
         rdf:about="">
        <dc:format>image/svg+xml</dc:format>
        <dc:type
           rdf:resource="http://purl.org/dc/dcmitype/StillImage" />
        <dc:title></dc:title>
      </cc:Work>
    </rdf:RDF>
  </metadata>
  <g
     inkscape:label="Layer 1"
     inkscape:groupmode="layer"
     id="layer1"
     transform="translate(-78.078678,-125.86005)">
    <path
       style="fill:#ffffff;stroke-width:0.16056775"
       d="m 78.078678,125.86005 v 41.70118 H 227.49909 v -41.70118 z m 20.844454,11.41384 c 0.987517,0 1.917368,0.14007 2.789648,0.41972 0.88052,0.27155 1.70752,0.66664 2.48105,1.18507 0.13983,0.0824 0.24278,0.18909 0.3086,0.32087 0.066,0.13161 0.0534,0.288 -0.037,0.46904 l -2.08609,2.96258 c -0.0906,0.13983 -0.18933,0.22217 -0.29633,0.24678 -0.0988,0.0164 -0.22218,-0.0211 -0.37018,-0.1112 -0.40324,-0.30449 -0.84772,-0.53898 -1.33326,-0.70355 -0.485514,-0.1647 -0.999861,-0.24678 -1.542966,-0.24678 -0.674793,0 -1.296044,0.12762 -1.863859,0.38268 -0.56781,0.25511 -1.057452,0.60481 -1.468897,1.04918 -0.411474,0.44438 -0.732435,0.96276 -0.96284,1.55525 -0.230382,0.5925 -0.345644,1.22611 -0.345644,1.9009 0,0.6748 0.115194,1.30838 0.345644,1.90088 0.230382,0.58428 0.551366,1.09863 0.96284,1.54298 0.411445,0.43616 0.901087,0.78183 1.468897,1.03693 0.567815,0.25509 1.189066,0.38267 1.863859,0.38267 0.543105,0 1.061721,-0.0823 1.555476,-0.24702 0.49374,-0.1729 0.94205,-0.41133 1.34529,-0.7158 0.14803,-0.0906 0.27164,-0.12762 0.37041,-0.1112 0.0988,0.0164 0.19753,0.0906 0.29633,0.22217 l 2.11063,3.0364 c 0.0906,0.18112 0.10276,0.33333 0.037,0.45678 -0.0659,0.1234 -0.16867,0.2264 -0.30859,0.3086 -0.77354,0.51843 -1.60884,0.92159 -2.50583,1.20962 -0.88875,0.27978 -1.826671,0.4197 -2.814165,0.4197 -0.872306,0 -1.711645,-0.11097 -2.518099,-0.33311 -0.798214,-0.22217 -1.547279,-0.5391 -2.246777,-0.95057 -0.69947,-0.41144 -1.337096,-0.90109 -1.913144,-1.46888 -0.567813,-0.57604 -1.057454,-1.20966 -1.468902,-1.9009 -0.411472,-0.69947 -0.728375,-1.4483 -0.950568,-2.24654 -0.222169,-0.80645 -0.333137,-1.64579 -0.333137,-2.51808 0,-0.87227 0.110968,-1.70758 0.333137,-2.50583 0.22217,-0.80644 0.539096,-1.55955 0.950568,-2.25901 0.411448,-0.70771 0.901089,-1.3494 1.468902,-1.92544 0.576048,-0.57603 1.213674,-1.06567 1.913144,-1.4689 0.699498,-0.41146 1.448563,-0.72839 2.246777,-0.95057 0.806454,-0.23038 1.645793,-0.34562 2.518076,-0.34562 z m 16.161708,0 c 0.86407,0 1.69936,0.1152 2.50583,0.34563 0.80645,0.22217 1.55932,0.53911 2.25879,0.95056 0.69947,0.40324 1.33735,0.89289 1.9134,1.4689 0.57602,0.57606 1.06567,1.21774 1.4689,1.92545 0.41145,0.69948 0.72814,1.45257 0.95034,2.25903 0.23037,0.79823 0.34561,1.63353 0.34561,2.50582 0,0.87228 -0.11519,1.71161 -0.34561,2.51807 -0.22217,0.79824 -0.53889,1.54707 -0.95034,2.24654 -0.40323,0.69124 -0.89288,1.32485 -1.4689,1.90091 -0.57605,0.56778 -1.21393,1.05742 -1.9134,1.46887 -0.69947,0.41147 -1.45234,0.7284 -2.25879,0.95057 -0.80647,0.22217 -1.64176,0.33314 -2.50583,0.33314 -0.87227,0 -1.71162,-0.11097 -2.51807,-0.33314 -0.79823,-0.22217 -1.54707,-0.5391 -2.24654,-0.95057 -0.69947,-0.41145 -1.33735,-0.90109 -1.91338,-1.46887 -0.56781,-0.57606 -1.05746,-1.20967 -1.46893,-1.90091 -0.41144,-0.69947 -0.72813,-1.4483 -0.95031,-2.24654 -0.22216,-0.80646 -0.33337,-1.64579 -0.33337,-2.51807 0,-0.87229 0.11121,-1.70759 0.33337,-2.50582 0.22218,-0.80646 0.53887,-1.55955 0.95031,-2.25903 0.41147,-0.70771 0.90112,-1.34939 1.46893,-1.92545 0.57603,-0.57601 1.21391,-1.06566 1.91338,-1.4689 0.69947,-0.41145 1.44831,-0.72837 2.24654,-0.95056 0.80645,-0.23038 1.6458,-0.34563 2.51807,-0.34563 z m 77.18749,0 c 0.98747,0 1.91734,0.14007 2.78962,0.41972 0.88052,0.27155 1.70752,0.66664 2.48105,1.18507 0.13983,0.0824 0.24277,0.18909 0.3086,0.32087 0.066,0.13161 0.0536,0.288 -0.037,0.46904 l -2.08609,2.96258 c -0.0906,0.13983 -0.1891,0.22217 -0.2961,0.24678 -0.0988,0.0164 -0.22241,-0.0211 -0.37042,-0.1112 -0.40321,-0.30449 -0.84748,-0.53898 -1.333,-0.70355 -0.48553,-0.1647 -0.99985,-0.24678 -1.54298,-0.24678 -0.67479,0 -1.29628,0.12762 -1.86409,0.38268 -0.56781,0.25511 -1.05743,0.60481 -1.4689,1.04918 -0.41145,0.44438 -0.73218,0.96276 -0.96258,1.55525 -0.23039,0.5925 -0.34567,1.22611 -0.34567,1.9009 0,0.6748 0.11519,1.30838 0.34567,1.90088 0.23038,0.58428 0.55113,1.09863 0.96258,1.54298 0.41147,0.43616 0.90109,0.78183 1.4689,1.03693 0.56781,0.25509 1.1893,0.38267 1.86409,0.38267 0.54313,0 1.06151,-0.0823 1.55525,-0.24702 0.49376,-0.1729 0.9423,-0.41133 1.34551,-0.7158 0.14803,-0.0906 0.27144,-0.12762 0.37018,-0.1112 0.0988,0.0164 0.19753,0.0906 0.29633,0.22217 l 2.11063,3.0364 c 0.0906,0.18112 0.103,0.33333 0.037,0.45678 -0.066,0.1234 -0.16869,0.2264 -0.3086,0.3086 -0.77356,0.51843 -1.60861,0.92159 -2.50559,1.20962 -0.88875,0.27978 -1.82693,0.4197 -2.8144,0.4197 -0.87231,0 -1.71165,-0.11097 -2.5181,-0.33311 -0.79824,-0.22217 -1.54705,-0.53912 -2.24652,-0.95057 -0.69949,-0.41147 -1.33738,-0.90109 -1.91341,-1.4689 -0.5678,-0.57605 -1.05745,-1.20967 -1.4689,-1.9009 -0.41147,-0.69947 -0.72813,-1.44831 -0.95032,-2.24652 -0.22218,-0.80648 -0.33338,-1.64582 -0.33338,-2.51809 0,-0.87229 0.1112,-1.7076 0.33338,-2.50583 0.22216,-0.80646 0.53885,-1.55956 0.95032,-2.25903 0.41145,-0.70771 0.9011,-1.34939 1.4689,-1.92541 0.57603,-0.57604 1.21392,-1.06569 1.91341,-1.46893 0.69947,-0.41145 1.44828,-0.72837 2.24652,-0.95054 0.80645,-0.23038 1.64579,-0.34565 2.5181,-0.34565 z m -64.37315,0.25929 h 6.08534 c 0.86407,0 1.69532,0.10699 2.49356,0.32087 0.80645,0.21396 1.55528,0.51852 2.24652,0.91352 0.69947,0.39498 1.33712,0.86825 1.91316,1.41959 0.57606,0.55134 1.06568,1.16833 1.46891,1.85134 0.41145,0.68302 0.72838,1.41974 0.95057,2.20973 0.23038,0.79 0.34561,1.61698 0.34561,2.48105 0,0.87228 -0.11119,1.70331 -0.33334,2.49332 -0.22217,0.78175 -0.53889,1.51418 -0.95034,2.1972 -0.41145,0.67479 -0.90535,1.28798 -1.48141,1.83932 -0.5678,0.55134 -1.20142,1.02032 -1.90089,1.40709 -0.69126,0.38676 -1.44007,0.68706 -2.24653,0.90101 -0.80647,0.20575 -1.64175,0.3086 -2.50582,0.3086 h -6.08534 c -0.14803,0 -0.27977,-0.0328 -0.39496,-0.0985 -0.11518,-0.066 -0.17289,-0.20575 -0.17289,-0.4197 v -17.24416 c 0,-0.1729 0.0453,-0.31275 0.13583,-0.41973 0.0988,-0.10698 0.24272,-0.16047 0.43197,-0.16047 z m 19.267,0.0117 h 12.2573 c 0.18112,0 0.32075,0.0534 0.41949,0.16046 0.0988,0.10698 0.14828,0.25117 0.14828,0.43221 v 3.06121 c 0,0.13982 -0.0495,0.27554 -0.14828,0.40723 -0.0988,0.1234 -0.24272,0.18509 -0.43199,0.18509 h -7.99875 V 144.84 h 6.17195 c 0.15625,0 0.28393,0.037 0.38267,0.1112 0.10698,0.0741 0.16046,0.1973 0.16046,0.37018 v 2.66625 c 0,0.11519 -0.045,0.2264 -0.13559,0.33337 -0.0906,0.10698 -0.2224,0.16047 -0.39519,0.16047 h -6.18421 v 3.14755 h 8.29508 c 0.37032,0 0.55538,0.18931 0.55538,0.56787 v 3.11076 c 0,0.0823 -0.0329,0.15624 -0.0985,0.22193 -0.0328,0.23038 -0.20153,0.34564 -0.50606,0.34564 H 147.1664 c -0.16445,0 -0.29643,-0.0411 -0.39518,-0.1234 -0.0988,-0.0906 -0.14803,-0.22616 -0.14803,-0.40723 v -17.23188 c 0,-0.1729 0.0451,-0.30871 0.1356,-0.40745 0.0988,-0.10699 0.23465,-0.16048 0.40746,-0.16048 z m 16.73266,0 h 4.0363 c 0.11518,0 0.23436,0.0289 0.35791,0.0863 0.1234,0.0577 0.23061,0.15647 0.3211,0.29631 1.04511,1.68698 2.08188,3.34926 3.11053,4.98687 1.02861,1.6376 2.06967,3.29988 3.12299,4.98685 v -9.88737 c 0.0328,-0.14802 0.0988,-0.26333 0.19754,-0.34563 0.0988,-0.0824 0.21395,-0.1234 0.34563,-0.1234 h 3.51796 c 0.17291,0 0.31679,0.0495 0.432,0.14827 0.11519,0.0906 0.17267,0.22216 0.17267,0.39495 V 155.394 c 0,0.1647 -0.0493,0.28788 -0.14804,0.37018 -0.0988,0.0741 -0.23465,0.11121 -0.40746,0.11121 h -3.93766 c -0.10698,0 -0.20152,-0.037 -0.28382,-0.11121 -0.0823,-0.0741 -0.16868,-0.17266 -0.25931,-0.29609 -1.09447,-1.81041 -2.1766,-3.60027 -3.24639,-5.36954 -1.06978,-1.76927 -2.15597,-3.55913 -3.25868,-5.36955 v 10.60318 c 0,0.18112 -0.041,0.31693 -0.1234,0.40747 -0.0823,0.0905 -0.23061,0.13559 -0.44448,0.13559 h -3.50545 c -0.18933,0 -0.3292,-0.0495 -0.41973,-0.14803 -0.0823,-0.10698 -0.1234,-0.23437 -0.1234,-0.38245 v -17.25667 c 0,-0.14803 0.045,-0.2757 0.1356,-0.38268 0.0906,-0.10697 0.2264,-0.16046 0.40746,-0.16046 z m 35.55945,0 h 4.75235 c 0.0577,0.0164 0.10275,0.0289 0.13559,0.037 0.0329,0 0.066,0.0117 0.0988,0.037 0.0328,0.0164 0.0657,0.0495 0.0985,0.0988 0.0328,0.041 0.0784,0.11097 0.13583,0.20975 l 3.01187,6.38166 2.98714,-6.38166 c 0.0493,-0.0988 0.0906,-0.16869 0.1234,-0.20975 0.0328,-0.0493 0.0659,-0.0823 0.0988,-0.0988 0.0329,-0.0246 0.0657,-0.037 0.0985,-0.037 0.0411,-0.009 0.0866,-0.0211 0.13584,-0.037 h 4.75235 c 0.0577,0 0.10275,0.0211 0.13559,0.0617 0.0411,0.0328 0.0617,0.0741 0.0617,0.1234 0,0.0906 -0.0577,0.19331 -0.1729,0.30858 l -5.85083,10.35643 v 6.90002 c 0,0.38677 -0.18932,0.58015 -0.5679,0.58015 H 205.79 c -0.16446,0 -0.29215,-0.0495 -0.38266,-0.14827 -0.0906,-0.10698 -0.13584,-0.25095 -0.13584,-0.43199 v -6.92474 l -5.83858,-10.33162 c -0.10698,-0.10697 -0.16047,-0.20974 -0.16047,-0.3086 0,-0.0493 0.0164,-0.0905 0.0493,-0.1234 0.0329,-0.041 0.0784,-0.0619 0.13584,-0.0619 z m -84.37345,4.27113 c -0.68302,0 -1.30855,0.12762 -1.87636,0.38268 -0.56779,0.25508 -1.06146,0.6048 -1.48117,1.04916 -0.41145,0.44438 -0.7324,0.96681 -0.96281,1.56754 -0.23038,0.59248 -0.34565,1.22611 -0.34565,1.90087 0,0.68303 0.1152,1.32091 0.34565,1.91341 0.23038,0.59249 0.55136,1.11087 0.96281,1.55526 0.41971,0.43613 0.91338,0.78182 1.48117,1.0369 0.56781,0.24687 1.19334,0.37018 1.87636,0.37018 0.68304,0 1.30832,-0.12316 1.87613,-0.37018 0.57603,-0.25508 1.06996,-0.60077 1.4814,-1.0369 0.41969,-0.44439 0.74469,-0.96277 0.97509,-1.55526 0.23038,-0.5925 0.34564,-1.23038 0.34564,-1.91341 0,-0.67476 -0.11519,-1.30839 -0.34564,-1.90087 -0.23038,-0.60073 -0.5554,-1.12316 -0.97509,-1.56754 -0.41144,-0.44436 -0.90537,-0.79408 -1.4814,-1.04916 -0.56781,-0.25511 -1.19309,-0.38268 -1.87613,-0.38268 z m 17.02356,0.14803 v 9.49242 h 1.03669 c 0.18932,0 0.37457,-0.005 0.55561,-0.0117 l 0.54311,-0.0495 c 0.6172,-0.0493 1.19331,-0.19729 1.72818,-0.44424 0.53489,-0.25511 0.99984,-0.58438 1.39484,-0.98762 0.40322,-0.41145 0.71587,-0.89276 0.93806,-1.44413 0.23038,-0.55133 0.34562,-1.15215 0.34562,-1.80226 0,-0.69124 -0.13161,-1.32485 -0.39493,-1.90091 -0.25511,-0.58425 -0.60483,-1.08623 -1.04919,-1.50592 -0.44437,-0.42791 -0.96702,-0.75697 -1.56777,-0.98738 -0.59249,-0.23863 -1.22608,-0.35814 -1.90087,-0.35814 z"
       id="rect3762"
       inkscape:connector-curvature="0" />
  </g>
</svg>
